<svg xmlns="http://www.w3.org/2000/svg" width="113.39" height="113.39" viewBox="0 0 113.39 113.39">
  <g id="Group_315" data-name="Group 315" transform="translate(197.579 1054.388)">
    <path id="Icon_awesome-pen-square" data-name="Icon awesome-pen-square" d="M101.241,115.64H12.149A12.152,12.152,0,0,1,0,103.491V14.4A12.152,12.152,0,0,1,12.149,2.25h89.092A12.152,12.152,0,0,1,113.39,14.4v89.092A12.152,12.152,0,0,1,101.241,115.64ZM60.264,39.178,25.918,73.523,24.323,87.976a3.065,3.065,0,0,0,3.366,3.366l14.452-1.595L76.487,55.4a1.543,1.543,0,0,0,0-2.151L62.44,39.2a1.551,1.551,0,0,0-2.177-.025Zm27.057-3.24L79.7,28.319a6.049,6.049,0,0,0-8.58,0l-5.847,5.847a1.543,1.543,0,0,0,0,2.151L79.322,50.365a1.543,1.543,0,0,0,2.151,0l5.847-5.847A6.1,6.1,0,0,0,87.32,35.938Z" transform="translate(-197.579 -1056.638)" fill="#888"/>
  </g>
</svg>
