<?xml version="1.0" encoding="UTF-8" standalone="no"?>
<svg width="100px" height="80px" viewBox="0 0 100 80" version="1.1" xmlns="http://www.w3.org/2000/svg" xmlns:xlink="http://www.w3.org/1999/xlink" xmlns:sketch="http://www.bohemiancoding.com/sketch/ns">
    <!-- Generator: Sketch 3.3.3 (12081) - http://www.bohemiancoding.com/sketch -->
    <title>Group</title>
    <desc>Created with Sketch.</desc>
    <defs></defs>
    <g id="Page-1" stroke="none" stroke-width="1" fill="none" fill-rule="evenodd" sketch:type="MSPage">
        <g id="Group" sketch:type="MSLayerGroup">
            <rect id="Rectangle-8" fill="#E8E8E8" sketch:type="MSShapeGroup" x="0" y="0" width="100" height="16" rx="2"></rect>
            <rect id="Rectangle-9" fill="#FFFFFF" sketch:type="MSShapeGroup" x="0" y="16" width="100" height="64"></rect>
            <rect id="Rectangle-5" fill="#E8E8E8" sketch:type="MSShapeGroup" x="0" y="14" width="100" height="2"></rect>
            <path d="M14.7995537,3.63964299 C14.4397546,3.51970993 12.2195984,3.39977687 10,3.39977687 C7.77984381,3.39977687 5.55968762,3.51970993 5.19988843,3.63964299 C4.26998884,3.93975456 4,6.03997769 4,8.19988843 C4,10.3597992 4.26998884,12.4600223 5.19988843,12.7595761 C5.55968762,12.8800669 7.77984381,13 10,13 C12.2195984,13 14.4397546,12.8800669 14.7995537,12.7595761 C15.7300112,12.4600223 16,10.3597992 16,8.19988843 C16,6.03997769 15.7300112,3.93975456 14.7995537,3.63964299 L14.7995537,3.63964299 Z M8.79955374,10.8997769 L8.79955374,5.5 L12.3997769,8.19988843 L8.79955374,10.8997769 L8.79955374,10.8997769 Z" id="Fill-10" fill="#FFFFFF" sketch:type="MSShapeGroup"></path>
            <rect id="Rectangle-10" fill="#C0C0C0" sketch:type="MSShapeGroup" x="4" y="20" width="64" height="56" rx="2"></rect>
            <path d="M32,43.3113778 L32,52.6886222 L39.6247783,48 L32,43.3113778" id="Fill-8-Copy" fill="#FFFFFF" sketch:type="MSShapeGroup"></path>
            <path d="M4,74 L27.9967603,74 L27.9967603,76 L4,76 L4,74 Z" id="Fill-9-Copy" fill="#FFC107" sketch:type="MSShapeGroup"></path>
            <rect id="Rectangle-10-Copy" fill="#E7E7E7" sketch:type="MSShapeGroup" x="72" y="20" width="24" height="56" rx="2"></rect>
        </g>
    </g>
</svg>
